# xmcd
#
# Track frame offsets:
#	150
#	21292
#	34172
#	44749
#	59695
#	71404
#	86995
#	100756
#	116915
#	131111
#	143291
#	160536
#
# Disc length: 2334 seconds
#
# Revision: 1
# Processed by: cddbd v1.5.2PL0 Copyright (c) Steve Scherf et al.
# Submitted via: audiograbber 1.83.01
#
DISCID=aa091c0c
DTITLE=Canadian Express - Songs Of Canada
DYEAR=1900
DGENRE=
TTITLE0=Vancouver Rain
TTITLE1=Walkin´ In The Rain
TTITLE2=Back To The Border
TTITLE3=Rocky Mountain Rebel
TTITLE4=Celebrate The Defference
TTITLE5=Thinking ´bout Leaving
TTITLE6=Calgary´s Song
TTITLE7=Living In The Usa
TTITLE8=Somebody New
TTITLE9=Worn Out Song
TTITLE10=School Of Hard Knockers
TTITLE11=Place In The Rockies
EXTD=
EXTT0=
EXTT1=
EXTT2=
EXTT3=
EXTT4=
EXTT5=
EXTT6=
EXTT7=
EXTT8=
EXTT9=
EXTT10=
EXTT11=
PLAYORDER=
